<?xml version="1.0" encoding="UTF-8"?>
<svg xmlns="http://www.w3.org/2000/svg" xmlns:xlink="http://www.w3.org/1999/xlink" width="2000pt" height="2000pt" viewBox="0 0 2000 2000" version="1.1">
<defs>
<clipPath id="clip1">
  <rect x="0" y="0" width="1000" height="1000"/>
</clipPath>
<g id="surface568" clip-path="url(#clip1)">
<path style=" stroke:none;fill-rule:nonzero;fill:rgb(69.281046%,80.130719%,98.300654%);fill-opacity:1;" d="M 300 400 C 300 455.226562 255.226562 500 200 500 C 144.773438 500 100 455.226562 100 400 C 100 344.773438 144.773438 300 200 300 C 255.226562 300 300 344.773438 300 400 Z M 300 400 "/>
<path style=" stroke:none;fill-rule:nonzero;fill:rgb(67.979085%,79.291503%,98.222222%);fill-opacity:1;" d="M 300 412 C 300 467.226562 255.226562 512 200 512 C 144.773438 512 100 467.226562 100 412 C 100 356.773438 144.773438 312 200 312 C 255.226562 312 300 356.773438 300 412 Z M 300 412 "/>
<path style=" stroke:none;fill-rule:nonzero;fill:rgb(66.677124%,78.452288%,98.143791%);fill-opacity:1;" d="M 300 424 C 300 479.226562 255.226562 524 200 524 C 144.773438 524 100 479.226562 100 424 C 100 368.773438 144.773438 324 200 324 C 255.226562 324 300 368.773438 300 424 Z M 300 424 "/>
<path style=" stroke:none;fill-rule:nonzero;fill:rgb(65.375163%,77.613072%,98.065359%);fill-opacity:1;" d="M 300 436 C 300 491.226562 255.226562 536 200 536 C 144.773438 536 100 491.226562 100 436 C 100 380.773438 144.773438 336 200 336 C 255.226562 336 300 380.773438 300 436 Z M 300 436 "/>
<path style=" stroke:none;fill-rule:nonzero;fill:rgb(64.073203%,76.773856%,97.986928%);fill-opacity:1;" d="M 300 448 C 300 503.226562 255.226562 548 200 548 C 144.773438 548 100 503.226562 100 448 C 100 392.773438 144.773438 348 200 348 C 255.226562 348 300 392.773438 300 448 Z M 300 448 "/>
<path style=" stroke:none;fill-rule:nonzero;fill:rgb(62.771242%,75.934641%,97.908497%);fill-opacity:1;" d="M 300 460 C 300 515.226562 255.226562 560 200 560 C 144.773438 560 100 515.226562 100 460 C 100 404.773438 144.773438 360 200 360 C 255.226562 360 300 404.773438 300 460 Z M 300 460 "/>
<path style=" stroke:none;fill-rule:nonzero;fill:rgb(61.469281%,75.095425%,97.830065%);fill-opacity:1;" d="M 300 472 C 300 527.226562 255.226562 572 200 572 C 144.773438 572 100 527.226562 100 472 C 100 416.773438 144.773438 372 200 372 C 255.226562 372 300 416.773438 300 472 Z M 300 472 "/>
<path style=" stroke:none;fill-rule:nonzero;fill:rgb(60.16732%,74.256209%,97.751634%);fill-opacity:1;" d="M 300 484 C 300 539.226562 255.226562 584 200 584 C 144.773438 584 100 539.226562 100 484 C 100 428.773438 144.773438 384 200 384 C 255.226562 384 300 428.773438 300 484 Z M 300 484 "/>
<path style=" stroke:none;fill-rule:nonzero;fill:rgb(58.865359%,73.416993%,97.673203%);fill-opacity:1;" d="M 300 496 C 300 551.226562 255.226562 596 200 596 C 144.773438 596 100 551.226562 100 496 C 100 440.773438 144.773438 396 200 396 C 255.226562 396 300 440.773438 300 496 Z M 300 496 "/>
<path style=" stroke:none;fill-rule:nonzero;fill:rgb(57.563399%,72.577778%,97.594771%);fill-opacity:1;" d="M 300 508 C 300 563.226562 255.226562 608 200 608 C 144.773438 608 100 563.226562 100 508 C 100 452.773438 144.773438 408 200 408 C 255.226562 408 300 452.773438 300 508 Z M 300 508 "/>
<path style=" stroke:none;fill-rule:nonzero;fill:rgb(56.261438%,71.738562%,97.51634%);fill-opacity:1;" d="M 300 520 C 300 575.226562 255.226562 620 200 620 C 144.773438 620 100 575.226562 100 520 C 100 464.773438 144.773438 420 200 420 C 255.226562 420 300 464.773438 300 520 Z M 300 520 "/>
<path style=" stroke:none;fill-rule:nonzero;fill:rgb(54.959477%,70.899346%,97.437908%);fill-opacity:1;" d="M 300 532 C 300 587.226562 255.226562 632 200 632 C 144.773438 632 100 587.226562 100 532 C 100 476.773438 144.773438 432 200 432 C 255.226562 432 300 476.773438 300 532 Z M 300 532 "/>
<path style=" stroke:none;fill-rule:nonzero;fill:rgb(53.657516%,70.060131%,97.359477%);fill-opacity:1;" d="M 300 544 C 300 599.226562 255.226562 644 200 644 C 144.773438 644 100 599.226562 100 544 C 100 488.773438 144.773438 444 200 444 C 255.226562 444 300 488.773438 300 544 Z M 300 544 "/>
<path style=" stroke:none;fill-rule:nonzero;fill:rgb(52.355556%,69.220915%,97.281046%);fill-opacity:1;" d="M 300 556 C 300 611.226562 255.226562 656 200 656 C 144.773438 656 100 611.226562 100 556 C 100 500.773438 144.773438 456 200 456 C 255.226562 456 300 500.773438 300 556 Z M 300 556 "/>
<path style=" stroke:none;fill-rule:nonzero;fill:rgb(51.053595%,68.381699%,97.202614%);fill-opacity:1;" d="M 300 568 C 300 623.226562 255.226562 668 200 668 C 144.773438 668 100 623.226562 100 568 C 100 512.773438 144.773438 468 200 468 C 255.226562 468 300 512.773438 300 568 Z M 300 568 "/>
<path style=" stroke:none;fill-rule:nonzero;fill:rgb(49.751634%,67.542484%,97.124183%);fill-opacity:1;" d="M 300 580 C 300 635.226562 255.226562 680 200 680 C 144.773438 680 100 635.226562 100 580 C 100 524.773438 144.773438 480 200 480 C 255.226562 480 300 524.773438 300 580 Z M 300 580 "/>
<path style=" stroke:none;fill-rule:nonzero;fill:rgb(48.449673%,66.703268%,97.045752%);fill-opacity:1;" d="M 300 592 C 300 647.226562 255.226562 692 200 692 C 144.773438 692 100 647.226562 100 592 C 100 536.773438 144.773438 492 200 492 C 255.226562 492 300 536.773438 300 592 Z M 300 592 "/>
<path style=" stroke:none;fill-rule:nonzero;fill:rgb(47.147712%,65.864052%,96.96732%);fill-opacity:1;" d="M 300 604 C 300 659.226562 255.226562 704 200 704 C 144.773438 704 100 659.226562 100 604 C 100 548.773438 144.773438 504 200 504 C 255.226562 504 300 548.773438 300 604 Z M 300 604 "/>
<path style=" stroke:none;fill-rule:nonzero;fill:rgb(45.845752%,65.024837%,96.888889%);fill-opacity:1;" d="M 300 616 C 300 671.226562 255.226562 716 200 716 C 144.773438 716 100 671.226562 100 616 C 100 560.773438 144.773438 516 200 516 C 255.226562 516 300 560.773438 300 616 Z M 300 616 "/>
<path style=" stroke:none;fill-rule:nonzero;fill:rgb(44.543791%,64.185621%,96.810458%);fill-opacity:1;" d="M 300 628 C 300 683.226562 255.226562 728 200 728 C 144.773438 728 100 683.226562 100 628 C 100 572.773438 144.773438 528 200 528 C 255.226562 528 300 572.773438 300 628 Z M 300 628 "/>
<path style=" stroke:none;fill-rule:nonzero;fill:rgb(43.24183%,63.346405%,96.732026%);fill-opacity:1;" d="M 300 640 C 300 695.226562 255.226562 740 200 740 C 144.773438 740 100 695.226562 100 640 C 100 584.773438 144.773438 540 200 540 C 255.226562 540 300 584.773438 300 640 Z M 300 640 "/>
<path style=" stroke:none;fill-rule:nonzero;fill:rgb(41.939869%,62.50719%,96.653595%);fill-opacity:1;" d="M 300 652 C 300 707.226562 255.226562 752 200 752 C 144.773438 752 100 707.226562 100 652 C 100 596.773438 144.773438 552 200 552 C 255.226562 552 300 596.773438 300 652 Z M 300 652 "/>
<path style=" stroke:none;fill-rule:nonzero;fill:rgb(40.637908%,61.667974%,96.575163%);fill-opacity:1;" d="M 300 664 C 300 719.226562 255.226562 764 200 764 C 144.773438 764 100 719.226562 100 664 C 100 608.773438 144.773438 564 200 564 C 255.226562 564 300 608.773438 300 664 Z M 300 664 "/>
<path style=" stroke:none;fill-rule:nonzero;fill:rgb(39.335948%,60.828758%,96.496732%);fill-opacity:1;" d="M 300 676 C 300 731.226562 255.226562 776 200 776 C 144.773438 776 100 731.226562 100 676 C 100 620.773438 144.773438 576 200 576 C 255.226562 576 300 620.773438 300 676 Z M 300 676 "/>
<path style=" stroke:none;fill-rule:nonzero;fill:rgb(38.033987%,59.989542%,96.418301%);fill-opacity:1;" d="M 300 688 C 300 743.226562 255.226562 788 200 788 C 144.773438 788 100 743.226562 100 688 C 100 632.773438 144.773438 588 200 588 C 255.226562 588 300 632.773438 300 688 Z M 300 688 "/>
<path style=" stroke:none;fill-rule:nonzero;fill:rgb(36.732026%,59.150327%,96.339869%);fill-opacity:1;" d="M 300 700 C 300 755.226562 255.226562 800 200 800 C 144.773438 800 100 755.226562 100 700 C 100 644.773438 144.773438 600 200 600 C 255.226562 600 300 644.773438 300 700 Z M 300 700 "/>
<path style=" stroke:none;fill-rule:nonzero;fill:rgb(35.430065%,58.311111%,96.261438%);fill-opacity:1;" d="M 300 712 C 300 767.226562 255.226562 812 200 812 C 144.773438 812 100 767.226562 100 712 C 100 656.773438 144.773438 612 200 612 C 255.226562 612 300 656.773438 300 712 Z M 300 712 "/>
<path style=" stroke:none;fill-rule:nonzero;fill:rgb(34.128105%,57.471895%,96.183007%);fill-opacity:1;" d="M 300 724 C 300 779.226562 255.226562 824 200 824 C 144.773438 824 100 779.226562 100 724 C 100 668.773438 144.773438 624 200 624 C 255.226562 624 300 668.773438 300 724 Z M 300 724 "/>
<path style=" stroke:none;fill-rule:nonzero;fill:rgb(32.826144%,56.63268%,96.104575%);fill-opacity:1;" d="M 300 736 C 300 791.226562 255.226562 836 200 836 C 144.773438 836 100 791.226562 100 736 C 100 680.773438 144.773438 636 200 636 C 255.226562 636 300 680.773438 300 736 Z M 300 736 "/>
<path style=" stroke:none;fill-rule:nonzero;fill:rgb(31.524183%,55.793464%,96.026144%);fill-opacity:1;" d="M 300 748 C 300 803.226562 255.226562 848 200 848 C 144.773438 848 100 803.226562 100 748 C 100 692.773438 144.773438 648 200 648 C 255.226562 648 300 692.773438 300 748 Z M 300 748 "/>
<path style=" stroke:none;fill-rule:nonzero;fill:rgb(30.222222%,54.954248%,95.947712%);fill-opacity:1;" d="M 300 760 C 300 815.226562 255.226562 860 200 860 C 144.773438 860 100 815.226562 100 760 C 100 704.773438 144.773438 660 200 660 C 255.226562 660 300 704.773438 300 760 Z M 300 760 "/>
<path style=" stroke:none;fill-rule:nonzero;fill:rgb(28.920261%,54.115033%,95.869281%);fill-opacity:1;" d="M 300 772 C 300 827.226562 255.226562 872 200 872 C 144.773438 872 100 827.226562 100 772 C 100 716.773438 144.773438 672 200 672 C 255.226562 672 300 716.773438 300 772 Z M 300 772 "/>
<path style=" stroke:none;fill-rule:nonzero;fill:rgb(27.618301%,53.275817%,95.79085%);fill-opacity:1;" d="M 300 784 C 300 839.226562 255.226562 884 200 884 C 144.773438 884 100 839.226562 100 784 C 100 728.773438 144.773438 684 200 684 C 255.226562 684 300 728.773438 300 784 Z M 300 784 "/>
<path style=" stroke:none;fill-rule:nonzero;fill:rgb(26.31634%,52.436601%,95.712418%);fill-opacity:1;" d="M 300 796 C 300 851.226562 255.226562 896 200 896 C 144.773438 896 100 851.226562 100 796 C 100 740.773438 144.773438 696 200 696 C 255.226562 696 300 740.773438 300 796 Z M 300 796 "/>
<path style=" stroke:none;fill-rule:nonzero;fill:rgb(25.882353%,52.156863%,95.686275%);fill-opacity:1;" d="M 300 800 C 300 855.226562 255.226562 900 200 900 C 144.773438 900 100 855.226562 100 800 C 100 744.773438 144.773438 700 200 700 C 255.226562 700 300 744.773438 300 800 Z M 300 800 "/>
<path style=" stroke:none;fill-rule:nonzero;fill:rgb(25.568627%,52.015686%,95.592157%);fill-opacity:1;" d="M 312 800 C 312 855.226562 267.226562 900 212 900 C 156.773438 900 112 855.226562 112 800 C 112 744.773438 156.773438 700 212 700 C 267.226562 700 312 744.773438 312 800 Z M 312 800 "/>
<path style=" stroke:none;fill-rule:nonzero;fill:rgb(25.254902%,51.87451%,95.498039%);fill-opacity:1;" d="M 324 800 C 324 855.226562 279.226562 900 224 900 C 168.773438 900 124 855.226562 124 800 C 124 744.773438 168.773438 700 224 700 C 279.226562 700 324 744.773438 324 800 Z M 324 800 "/>
<path style=" stroke:none;fill-rule:nonzero;fill:rgb(24.941176%,51.733333%,95.403922%);fill-opacity:1;" d="M 336 800 C 336 855.226562 291.226562 900 236 900 C 180.773438 900 136 855.226562 136 800 C 136 744.773438 180.773438 700 236 700 C 291.226562 700 336 744.773438 336 800 Z M 336 800 "/>
<path style=" stroke:none;fill-rule:nonzero;fill:rgb(24.627451%,51.592157%,95.309804%);fill-opacity:1;" d="M 348 800 C 348 855.226562 303.226562 900 248 900 C 192.773438 900 148 855.226562 148 800 C 148 744.773438 192.773438 700 248 700 C 303.226562 700 348 744.773438 348 800 Z M 348 800 "/>
<path style=" stroke:none;fill-rule:nonzero;fill:rgb(24.313725%,51.45098%,95.215686%);fill-opacity:1;" d="M 360 800 C 360 855.226562 315.226562 900 260 900 C 204.773438 900 160 855.226562 160 800 C 160 744.773438 204.773438 700 260 700 C 315.226562 700 360 744.773438 360 800 Z M 360 800 "/>
<path style=" stroke:none;fill-rule:nonzero;fill:rgb(24%,51.309804%,95.121569%);fill-opacity:1;" d="M 372 800 C 372 855.226562 327.226562 900 272 900 C 216.773438 900 172 855.226562 172 800 C 172 744.773438 216.773438 700 272 700 C 327.226562 700 372 744.773438 372 800 Z M 372 800 "/>
<path style=" stroke:none;fill-rule:nonzero;fill:rgb(23.686275%,51.168627%,95.027451%);fill-opacity:1;" d="M 384 800 C 384 855.226562 339.226562 900 284 900 C 228.773438 900 184 855.226562 184 800 C 184 744.773438 228.773438 700 284 700 C 339.226562 700 384 744.773438 384 800 Z M 384 800 "/>
<path style=" stroke:none;fill-rule:nonzero;fill:rgb(23.372549%,51.027451%,94.933333%);fill-opacity:1;" d="M 396 800 C 396 855.226562 351.226562 900 296 900 C 240.773438 900 196 855.226562 196 800 C 196 744.773438 240.773438 700 296 700 C 351.226562 700 396 744.773438 396 800 Z M 396 800 "/>
<path style=" stroke:none;fill-rule:nonzero;fill:rgb(23.058824%,50.886275%,94.839216%);fill-opacity:1;" d="M 408 800 C 408 855.226562 363.226562 900 308 900 C 252.773438 900 208 855.226562 208 800 C 208 744.773438 252.773438 700 308 700 C 363.226562 700 408 744.773438 408 800 Z M 408 800 "/>
<path style=" stroke:none;fill-rule:nonzero;fill:rgb(22.745098%,50.745098%,94.745098%);fill-opacity:1;" d="M 420 800 C 420 855.226562 375.226562 900 320 900 C 264.773438 900 220 855.226562 220 800 C 220 744.773438 264.773438 700 320 700 C 375.226562 700 420 744.773438 420 800 Z M 420 800 "/>
<path style=" stroke:none;fill-rule:nonzero;fill:rgb(22.431373%,50.603922%,94.65098%);fill-opacity:1;" d="M 432 800 C 432 855.226562 387.226562 900 332 900 C 276.773438 900 232 855.226562 232 800 C 232 744.773438 276.773438 700 332 700 C 387.226562 700 432 744.773438 432 800 Z M 432 800 "/>
<path style=" stroke:none;fill-rule:nonzero;fill:rgb(22.117647%,50.462745%,94.556863%);fill-opacity:1;" d="M 444 800 C 444 855.226562 399.226562 900 344 900 C 288.773438 900 244 855.226562 244 800 C 244 744.773438 288.773438 700 344 700 C 399.226562 700 444 744.773438 444 800 Z M 444 800 "/>
<path style=" stroke:none;fill-rule:nonzero;fill:rgb(21.803922%,50.321569%,94.462745%);fill-opacity:1;" d="M 456 800 C 456 855.226562 411.226562 900 356 900 C 300.773438 900 256 855.226562 256 800 C 256 744.773438 300.773438 700 356 700 C 411.226562 700 456 744.773438 456 800 Z M 456 800 "/>
<path style=" stroke:none;fill-rule:nonzero;fill:rgb(21.490196%,50.180392%,94.368627%);fill-opacity:1;" d="M 468 800 C 468 855.226562 423.226562 900 368 900 C 312.773438 900 268 855.226562 268 800 C 268 744.773438 312.773438 700 368 700 C 423.226562 700 468 744.773438 468 800 Z M 468 800 "/>
<path style=" stroke:none;fill-rule:nonzero;fill:rgb(21.176471%,50.039216%,94.27451%);fill-opacity:1;" d="M 480 800 C 480 855.226562 435.226562 900 380 900 C 324.773438 900 280 855.226562 280 800 C 280 744.773438 324.773438 700 380 700 C 435.226562 700 480 744.773438 480 800 Z M 480 800 "/>
<path style=" stroke:none;fill-rule:nonzero;fill:rgb(20.862745%,49.898039%,94.180392%);fill-opacity:1;" d="M 492 800 C 492 855.226562 447.226562 900 392 900 C 336.773438 900 292 855.226562 292 800 C 292 744.773438 336.773438 700 392 700 C 447.226562 700 492 744.773438 492 800 Z M 492 800 "/>
<path style=" stroke:none;fill-rule:nonzero;fill:rgb(20.54902%,49.756863%,94.086275%);fill-opacity:1;" d="M 504 800 C 504 855.226562 459.226562 900 404 900 C 348.773438 900 304 855.226562 304 800 C 304 744.773438 348.773438 700 404 700 C 459.226562 700 504 744.773438 504 800 Z M 504 800 "/>
<path style=" stroke:none;fill-rule:nonzero;fill:rgb(20.235294%,49.615686%,93.992157%);fill-opacity:1;" d="M 516 800 C 516 855.226562 471.226562 900 416 900 C 360.773438 900 316 855.226562 316 800 C 316 744.773438 360.773438 700 416 700 C 471.226562 700 516 744.773438 516 800 Z M 516 800 "/>
<path style=" stroke:none;fill-rule:nonzero;fill:rgb(19.921569%,49.47451%,93.898039%);fill-opacity:1;" d="M 528 800 C 528 855.226562 483.226562 900 428 900 C 372.773438 900 328 855.226562 328 800 C 328 744.773438 372.773438 700 428 700 C 483.226562 700 528 744.773438 528 800 Z M 528 800 "/>
<path style=" stroke:none;fill-rule:nonzero;fill:rgb(19.607843%,49.333333%,93.803922%);fill-opacity:1;" d="M 540 800 C 540 855.226562 495.226562 900 440 900 C 384.773438 900 340 855.226562 340 800 C 340 744.773438 384.773438 700 440 700 C 495.226562 700 540 744.773438 540 800 Z M 540 800 "/>
<path style=" stroke:none;fill-rule:nonzero;fill:rgb(19.294118%,49.192157%,93.709804%);fill-opacity:1;" d="M 552 800 C 552 855.226562 507.226562 900 452 900 C 396.773438 900 352 855.226562 352 800 C 352 744.773438 396.773438 700 452 700 C 507.226562 700 552 744.773438 552 800 Z M 552 800 "/>
<path style=" stroke:none;fill-rule:nonzero;fill:rgb(18.980392%,49.05098%,93.615686%);fill-opacity:1;" d="M 564 800 C 564 855.226562 519.226562 900 464 900 C 408.773438 900 364 855.226562 364 800 C 364 744.773438 408.773438 700 464 700 C 519.226562 700 564 744.773438 564 800 Z M 564 800 "/>
<path style=" stroke:none;fill-rule:nonzero;fill:rgb(18.666667%,48.909804%,93.521569%);fill-opacity:1;" d="M 576 800 C 576 855.226562 531.226562 900 476 900 C 420.773438 900 376 855.226562 376 800 C 376 744.773438 420.773438 700 476 700 C 531.226562 700 576 744.773438 576 800 Z M 576 800 "/>
<path style=" stroke:none;fill-rule:nonzero;fill:rgb(18.352941%,48.768627%,93.427451%);fill-opacity:1;" d="M 588 800 C 588 855.226562 543.226562 900 488 900 C 432.773438 900 388 855.226562 388 800 C 388 744.773438 432.773438 700 488 700 C 543.226562 700 588 744.773438 588 800 Z M 588 800 "/>
<path style=" stroke:none;fill-rule:nonzero;fill:rgb(18.039216%,48.627451%,93.333333%);fill-opacity:1;" d="M 600 800 C 600 855.226562 555.226562 900 500 900 C 444.773438 900 400 855.226562 400 800 C 400 744.773438 444.773438 700 500 700 C 555.226562 700 600 744.773438 600 800 Z M 600 800 "/>
<path style=" stroke:none;fill-rule:nonzero;fill:rgb(17.72549%,48.486275%,93.239216%);fill-opacity:1;" d="M 612 800 C 612 855.226562 567.226562 900 512 900 C 456.773438 900 412 855.226562 412 800 C 412 744.773438 456.773438 700 512 700 C 567.226562 700 612 744.773438 612 800 Z M 612 800 "/>
<path style=" stroke:none;fill-rule:nonzero;fill:rgb(17.411765%,48.345098%,93.145098%);fill-opacity:1;" d="M 624 800 C 624 855.226562 579.226562 900 524 900 C 468.773438 900 424 855.226562 424 800 C 424 744.773438 468.773438 700 524 700 C 579.226562 700 624 744.773438 624 800 Z M 624 800 "/>
<path style=" stroke:none;fill-rule:nonzero;fill:rgb(17.098039%,48.203922%,93.05098%);fill-opacity:1;" d="M 636 800 C 636 855.226562 591.226562 900 536 900 C 480.773438 900 436 855.226562 436 800 C 436 744.773438 480.773438 700 536 700 C 591.226562 700 636 744.773438 636 800 Z M 636 800 "/>
<path style=" stroke:none;fill-rule:nonzero;fill:rgb(16.784314%,48.062745%,92.956863%);fill-opacity:1;" d="M 648 800 C 648 855.226562 603.226562 900 548 900 C 492.773438 900 448 855.226562 448 800 C 448 744.773438 492.773438 700 548 700 C 603.226562 700 648 744.773438 648 800 Z M 648 800 "/>
<path style=" stroke:none;fill-rule:nonzero;fill:rgb(16.470588%,47.921569%,92.862745%);fill-opacity:1;" d="M 660 800 C 660 855.226562 615.226562 900 560 900 C 504.773438 900 460 855.226562 460 800 C 460 744.773438 504.773438 700 560 700 C 615.226562 700 660 744.773438 660 800 Z M 660 800 "/>
<path style=" stroke:none;fill-rule:nonzero;fill:rgb(16.156863%,47.780392%,92.768627%);fill-opacity:1;" d="M 672 800 C 672 855.226562 627.226562 900 572 900 C 516.773438 900 472 855.226562 472 800 C 472 744.773438 516.773438 700 572 700 C 627.226562 700 672 744.773438 672 800 Z M 672 800 "/>
<path style=" stroke:none;fill-rule:nonzero;fill:rgb(15.843137%,47.639216%,92.67451%);fill-opacity:1;" d="M 684 800 C 684 855.226562 639.226562 900 584 900 C 528.773438 900 484 855.226562 484 800 C 484 744.773438 528.773438 700 584 700 C 639.226562 700 684 744.773438 684 800 Z M 684 800 "/>
<path style=" stroke:none;fill-rule:nonzero;fill:rgb(15.529412%,47.498039%,92.580392%);fill-opacity:1;" d="M 696 800 C 696 855.226562 651.226562 900 596 900 C 540.773438 900 496 855.226562 496 800 C 496 744.773438 540.773438 700 596 700 C 651.226562 700 696 744.773438 696 800 Z M 696 800 "/>
<path style=" stroke:none;fill-rule:nonzero;fill:rgb(9.019608%,30.588235%,65.098039%);fill-opacity:1;" d="M 700 800 C 700 855.226562 655.226562 900 600 900 C 544.773438 900 500 855.226562 500 800 C 500 744.773438 544.773438 700 600 700 C 655.226562 700 700 744.773438 700 800 Z M 700 800 "/>
<path style=" stroke:none;fill-rule:nonzero;fill:rgb(69.281046%,80.130719%,98.300654%);fill-opacity:1;" d="M 900 600 C 900 655.226562 855.226562 700 800 700 C 744.773438 700 700 655.226562 700 600 C 700 544.773438 744.773438 500 800 500 C 855.226562 500 900 544.773438 900 600 Z M 900 600 "/>
<path style=" stroke:none;fill-rule:nonzero;fill:rgb(67.979085%,79.291503%,98.222222%);fill-opacity:1;" d="M 900 588 C 900 643.226562 855.226562 688 800 688 C 744.773438 688 700 643.226562 700 588 C 700 532.773438 744.773438 488 800 488 C 855.226562 488 900 532.773438 900 588 Z M 900 588 "/>
<path style=" stroke:none;fill-rule:nonzero;fill:rgb(66.677124%,78.452288%,98.143791%);fill-opacity:1;" d="M 900 576 C 900 631.226562 855.226562 676 800 676 C 744.773438 676 700 631.226562 700 576 C 700 520.773438 744.773438 476 800 476 C 855.226562 476 900 520.773438 900 576 Z M 900 576 "/>
<path style=" stroke:none;fill-rule:nonzero;fill:rgb(65.375163%,77.613072%,98.065359%);fill-opacity:1;" d="M 900 564 C 900 619.226562 855.226562 664 800 664 C 744.773438 664 700 619.226562 700 564 C 700 508.773438 744.773438 464 800 464 C 855.226562 464 900 508.773438 900 564 Z M 900 564 "/>
<path style=" stroke:none;fill-rule:nonzero;fill:rgb(64.073203%,76.773856%,97.986928%);fill-opacity:1;" d="M 900 552 C 900 607.226562 855.226562 652 800 652 C 744.773438 652 700 607.226562 700 552 C 700 496.773438 744.773438 452 800 452 C 855.226562 452 900 496.773438 900 552 Z M 900 552 "/>
<path style=" stroke:none;fill-rule:nonzero;fill:rgb(62.771242%,75.934641%,97.908497%);fill-opacity:1;" d="M 900 540 C 900 595.226562 855.226562 640 800 640 C 744.773438 640 700 595.226562 700 540 C 700 484.773438 744.773438 440 800 440 C 855.226562 440 900 484.773438 900 540 Z M 900 540 "/>
<path style=" stroke:none;fill-rule:nonzero;fill:rgb(61.469281%,75.095425%,97.830065%);fill-opacity:1;" d="M 900 528 C 900 583.226562 855.226562 628 800 628 C 744.773438 628 700 583.226562 700 528 C 700 472.773438 744.773438 428 800 428 C 855.226562 428 900 472.773438 900 528 Z M 900 528 "/>
<path style=" stroke:none;fill-rule:nonzero;fill:rgb(60.16732%,74.256209%,97.751634%);fill-opacity:1;" d="M 900 516 C 900 571.226562 855.226562 616 800 616 C 744.773438 616 700 571.226562 700 516 C 700 460.773438 744.773438 416 800 416 C 855.226562 416 900 460.773438 900 516 Z M 900 516 "/>
<path style=" stroke:none;fill-rule:nonzero;fill:rgb(58.865359%,73.416993%,97.673203%);fill-opacity:1;" d="M 900 504 C 900 559.226562 855.226562 604 800 604 C 744.773438 604 700 559.226562 700 504 C 700 448.773438 744.773438 404 800 404 C 855.226562 404 900 448.773438 900 504 Z M 900 504 "/>
<path style=" stroke:none;fill-rule:nonzero;fill:rgb(57.563399%,72.577778%,97.594771%);fill-opacity:1;" d="M 900 492 C 900 547.226562 855.226562 592 800 592 C 744.773438 592 700 547.226562 700 492 C 700 436.773438 744.773438 392 800 392 C 855.226562 392 900 436.773438 900 492 Z M 900 492 "/>
<path style=" stroke:none;fill-rule:nonzero;fill:rgb(56.261438%,71.738562%,97.51634%);fill-opacity:1;" d="M 900 480 C 900 535.226562 855.226562 580 800 580 C 744.773438 580 700 535.226562 700 480 C 700 424.773438 744.773438 380 800 380 C 855.226562 380 900 424.773438 900 480 Z M 900 480 "/>
<path style=" stroke:none;fill-rule:nonzero;fill:rgb(54.959477%,70.899346%,97.437908%);fill-opacity:1;" d="M 900 468 C 900 523.226562 855.226562 568 800 568 C 744.773438 568 700 523.226562 700 468 C 700 412.773438 744.773438 368 800 368 C 855.226562 368 900 412.773438 900 468 Z M 900 468 "/>
<path style=" stroke:none;fill-rule:nonzero;fill:rgb(53.657516%,70.060131%,97.359477%);fill-opacity:1;" d="M 900 456 C 900 511.226562 855.226562 556 800 556 C 744.773438 556 700 511.226562 700 456 C 700 400.773438 744.773438 356 800 356 C 855.226562 356 900 400.773438 900 456 Z M 900 456 "/>
<path style=" stroke:none;fill-rule:nonzero;fill:rgb(52.355556%,69.220915%,97.281046%);fill-opacity:1;" d="M 900 444 C 900 499.226562 855.226562 544 800 544 C 744.773438 544 700 499.226562 700 444 C 700 388.773438 744.773438 344 800 344 C 855.226562 344 900 388.773438 900 444 Z M 900 444 "/>
<path style=" stroke:none;fill-rule:nonzero;fill:rgb(51.053595%,68.381699%,97.202614%);fill-opacity:1;" d="M 900 432 C 900 487.226562 855.226562 532 800 532 C 744.773438 532 700 487.226562 700 432 C 700 376.773438 744.773438 332 800 332 C 855.226562 332 900 376.773438 900 432 Z M 900 432 "/>
<path style=" stroke:none;fill-rule:nonzero;fill:rgb(49.751634%,67.542484%,97.124183%);fill-opacity:1;" d="M 900 420 C 900 475.226562 855.226562 520 800 520 C 744.773438 520 700 475.226562 700 420 C 700 364.773438 744.773438 320 800 320 C 855.226562 320 900 364.773438 900 420 Z M 900 420 "/>
<path style=" stroke:none;fill-rule:nonzero;fill:rgb(48.449673%,66.703268%,97.045752%);fill-opacity:1;" d="M 900 408 C 900 463.226562 855.226562 508 800 508 C 744.773438 508 700 463.226562 700 408 C 700 352.773438 744.773438 308 800 308 C 855.226562 308 900 352.773438 900 408 Z M 900 408 "/>
<path style=" stroke:none;fill-rule:nonzero;fill:rgb(47.147712%,65.864052%,96.96732%);fill-opacity:1;" d="M 900 396 C 900 451.226562 855.226562 496 800 496 C 744.773438 496 700 451.226562 700 396 C 700 340.773438 744.773438 296 800 296 C 855.226562 296 900 340.773438 900 396 Z M 900 396 "/>
<path style=" stroke:none;fill-rule:nonzero;fill:rgb(45.845752%,65.024837%,96.888889%);fill-opacity:1;" d="M 900 384 C 900 439.226562 855.226562 484 800 484 C 744.773438 484 700 439.226562 700 384 C 700 328.773438 744.773438 284 800 284 C 855.226562 284 900 328.773438 900 384 Z M 900 384 "/>
<path style=" stroke:none;fill-rule:nonzero;fill:rgb(44.543791%,64.185621%,96.810458%);fill-opacity:1;" d="M 900 372 C 900 427.226562 855.226562 472 800 472 C 744.773438 472 700 427.226562 700 372 C 700 316.773438 744.773438 272 800 272 C 855.226562 272 900 316.773438 900 372 Z M 900 372 "/>
<path style=" stroke:none;fill-rule:nonzero;fill:rgb(43.24183%,63.346405%,96.732026%);fill-opacity:1;" d="M 900 360 C 900 415.226562 855.226562 460 800 460 C 744.773438 460 700 415.226562 700 360 C 700 304.773438 744.773438 260 800 260 C 855.226562 260 900 304.773438 900 360 Z M 900 360 "/>
<path style=" stroke:none;fill-rule:nonzero;fill:rgb(41.939869%,62.50719%,96.653595%);fill-opacity:1;" d="M 900 348 C 900 403.226562 855.226562 448 800 448 C 744.773438 448 700 403.226562 700 348 C 700 292.773438 744.773438 248 800 248 C 855.226562 248 900 292.773438 900 348 Z M 900 348 "/>
<path style=" stroke:none;fill-rule:nonzero;fill:rgb(40.637908%,61.667974%,96.575163%);fill-opacity:1;" d="M 900 336 C 900 391.226562 855.226562 436 800 436 C 744.773438 436 700 391.226562 700 336 C 700 280.773438 744.773438 236 800 236 C 855.226562 236 900 280.773438 900 336 Z M 900 336 "/>
<path style=" stroke:none;fill-rule:nonzero;fill:rgb(39.335948%,60.828758%,96.496732%);fill-opacity:1;" d="M 900 324 C 900 379.226562 855.226562 424 800 424 C 744.773438 424 700 379.226562 700 324 C 700 268.773438 744.773438 224 800 224 C 855.226562 224 900 268.773438 900 324 Z M 900 324 "/>
<path style=" stroke:none;fill-rule:nonzero;fill:rgb(38.033987%,59.989542%,96.418301%);fill-opacity:1;" d="M 900 312 C 900 367.226562 855.226562 412 800 412 C 744.773438 412 700 367.226562 700 312 C 700 256.773438 744.773438 212 800 212 C 855.226562 212 900 256.773438 900 312 Z M 900 312 "/>
<path style=" stroke:none;fill-rule:nonzero;fill:rgb(36.732026%,59.150327%,96.339869%);fill-opacity:1;" d="M 900 300 C 900 355.226562 855.226562 400 800 400 C 744.773438 400 700 355.226562 700 300 C 700 244.773438 744.773438 200 800 200 C 855.226562 200 900 244.773438 900 300 Z M 900 300 "/>
<path style=" stroke:none;fill-rule:nonzero;fill:rgb(35.430065%,58.311111%,96.261438%);fill-opacity:1;" d="M 900 288 C 900 343.226562 855.226562 388 800 388 C 744.773438 388 700 343.226562 700 288 C 700 232.773438 744.773438 188 800 188 C 855.226562 188 900 232.773438 900 288 Z M 900 288 "/>
<path style=" stroke:none;fill-rule:nonzero;fill:rgb(34.128105%,57.471895%,96.183007%);fill-opacity:1;" d="M 900 276 C 900 331.226562 855.226562 376 800 376 C 744.773438 376 700 331.226562 700 276 C 700 220.773438 744.773438 176 800 176 C 855.226562 176 900 220.773438 900 276 Z M 900 276 "/>
<path style=" stroke:none;fill-rule:nonzero;fill:rgb(32.826144%,56.63268%,96.104575%);fill-opacity:1;" d="M 900 264 C 900 319.226562 855.226562 364 800 364 C 744.773438 364 700 319.226562 700 264 C 700 208.773438 744.773438 164 800 164 C 855.226562 164 900 208.773438 900 264 Z M 900 264 "/>
<path style=" stroke:none;fill-rule:nonzero;fill:rgb(31.524183%,55.793464%,96.026144%);fill-opacity:1;" d="M 900 252 C 900 307.226562 855.226562 352 800 352 C 744.773438 352 700 307.226562 700 252 C 700 196.773438 744.773438 152 800 152 C 855.226562 152 900 196.773438 900 252 Z M 900 252 "/>
<path style=" stroke:none;fill-rule:nonzero;fill:rgb(30.222222%,54.954248%,95.947712%);fill-opacity:1;" d="M 900 240 C 900 295.226562 855.226562 340 800 340 C 744.773438 340 700 295.226562 700 240 C 700 184.773438 744.773438 140 800 140 C 855.226562 140 900 184.773438 900 240 Z M 900 240 "/>
<path style=" stroke:none;fill-rule:nonzero;fill:rgb(28.920261%,54.115033%,95.869281%);fill-opacity:1;" d="M 900 228 C 900 283.226562 855.226562 328 800 328 C 744.773438 328 700 283.226562 700 228 C 700 172.773438 744.773438 128 800 128 C 855.226562 128 900 172.773438 900 228 Z M 900 228 "/>
<path style=" stroke:none;fill-rule:nonzero;fill:rgb(27.618301%,53.275817%,95.79085%);fill-opacity:1;" d="M 900 216 C 900 271.226562 855.226562 316 800 316 C 744.773438 316 700 271.226562 700 216 C 700 160.773438 744.773438 116 800 116 C 855.226562 116 900 160.773438 900 216 Z M 900 216 "/>
<path style=" stroke:none;fill-rule:nonzero;fill:rgb(26.31634%,52.436601%,95.712418%);fill-opacity:1;" d="M 900 204 C 900 259.226562 855.226562 304 800 304 C 744.773438 304 700 259.226562 700 204 C 700 148.773438 744.773438 104 800 104 C 855.226562 104 900 148.773438 900 204 Z M 900 204 "/>
<path style=" stroke:none;fill-rule:nonzero;fill:rgb(25.882353%,52.156863%,95.686275%);fill-opacity:1;" d="M 900 200 C 900 255.226562 855.226562 300 800 300 C 744.773438 300 700 255.226562 700 200 C 700 144.773438 744.773438 100 800 100 C 855.226562 100 900 144.773438 900 200 Z M 900 200 "/>
<path style=" stroke:none;fill-rule:nonzero;fill:rgb(25.568627%,52.015686%,95.592157%);fill-opacity:1;" d="M 888 200 C 888 255.226562 843.226562 300 788 300 C 732.773438 300 688 255.226562 688 200 C 688 144.773438 732.773438 100 788 100 C 843.226562 100 888 144.773438 888 200 Z M 888 200 "/>
<path style=" stroke:none;fill-rule:nonzero;fill:rgb(25.254902%,51.87451%,95.498039%);fill-opacity:1;" d="M 876 200 C 876 255.226562 831.226562 300 776 300 C 720.773438 300 676 255.226562 676 200 C 676 144.773438 720.773438 100 776 100 C 831.226562 100 876 144.773438 876 200 Z M 876 200 "/>
<path style=" stroke:none;fill-rule:nonzero;fill:rgb(24.941176%,51.733333%,95.403922%);fill-opacity:1;" d="M 864 200 C 864 255.226562 819.226562 300 764 300 C 708.773438 300 664 255.226562 664 200 C 664 144.773438 708.773438 100 764 100 C 819.226562 100 864 144.773438 864 200 Z M 864 200 "/>
<path style=" stroke:none;fill-rule:nonzero;fill:rgb(24.627451%,51.592157%,95.309804%);fill-opacity:1;" d="M 852 200 C 852 255.226562 807.226562 300 752 300 C 696.773438 300 652 255.226562 652 200 C 652 144.773438 696.773438 100 752 100 C 807.226562 100 852 144.773438 852 200 Z M 852 200 "/>
<path style=" stroke:none;fill-rule:nonzero;fill:rgb(24.313725%,51.45098%,95.215686%);fill-opacity:1;" d="M 840 200 C 840 255.226562 795.226562 300 740 300 C 684.773438 300 640 255.226562 640 200 C 640 144.773438 684.773438 100 740 100 C 795.226562 100 840 144.773438 840 200 Z M 840 200 "/>
<path style=" stroke:none;fill-rule:nonzero;fill:rgb(24%,51.309804%,95.121569%);fill-opacity:1;" d="M 828 200 C 828 255.226562 783.226562 300 728 300 C 672.773438 300 628 255.226562 628 200 C 628 144.773438 672.773438 100 728 100 C 783.226562 100 828 144.773438 828 200 Z M 828 200 "/>
<path style=" stroke:none;fill-rule:nonzero;fill:rgb(23.686275%,51.168627%,95.027451%);fill-opacity:1;" d="M 816 200 C 816 255.226562 771.226562 300 716 300 C 660.773438 300 616 255.226562 616 200 C 616 144.773438 660.773438 100 716 100 C 771.226562 100 816 144.773438 816 200 Z M 816 200 "/>
<path style=" stroke:none;fill-rule:nonzero;fill:rgb(23.372549%,51.027451%,94.933333%);fill-opacity:1;" d="M 804 200 C 804 255.226562 759.226562 300 704 300 C 648.773438 300 604 255.226562 604 200 C 604 144.773438 648.773438 100 704 100 C 759.226562 100 804 144.773438 804 200 Z M 804 200 "/>
<path style=" stroke:none;fill-rule:nonzero;fill:rgb(23.058824%,50.886275%,94.839216%);fill-opacity:1;" d="M 792 200 C 792 255.226562 747.226562 300 692 300 C 636.773438 300 592 255.226562 592 200 C 592 144.773438 636.773438 100 692 100 C 747.226562 100 792 144.773438 792 200 Z M 792 200 "/>
<path style=" stroke:none;fill-rule:nonzero;fill:rgb(22.745098%,50.745098%,94.745098%);fill-opacity:1;" d="M 780 200 C 780 255.226562 735.226562 300 680 300 C 624.773438 300 580 255.226562 580 200 C 580 144.773438 624.773438 100 680 100 C 735.226562 100 780 144.773438 780 200 Z M 780 200 "/>
<path style=" stroke:none;fill-rule:nonzero;fill:rgb(22.431373%,50.603922%,94.65098%);fill-opacity:1;" d="M 768 200 C 768 255.226562 723.226562 300 668 300 C 612.773438 300 568 255.226562 568 200 C 568 144.773438 612.773438 100 668 100 C 723.226562 100 768 144.773438 768 200 Z M 768 200 "/>
<path style=" stroke:none;fill-rule:nonzero;fill:rgb(22.117647%,50.462745%,94.556863%);fill-opacity:1;" d="M 756 200 C 756 255.226562 711.226562 300 656 300 C 600.773438 300 556 255.226562 556 200 C 556 144.773438 600.773438 100 656 100 C 711.226562 100 756 144.773438 756 200 Z M 756 200 "/>
<path style=" stroke:none;fill-rule:nonzero;fill:rgb(21.803922%,50.321569%,94.462745%);fill-opacity:1;" d="M 744 200 C 744 255.226562 699.226562 300 644 300 C 588.773438 300 544 255.226562 544 200 C 544 144.773438 588.773438 100 644 100 C 699.226562 100 744 144.773438 744 200 Z M 744 200 "/>
<path style=" stroke:none;fill-rule:nonzero;fill:rgb(21.490196%,50.180392%,94.368627%);fill-opacity:1;" d="M 732 200 C 732 255.226562 687.226562 300 632 300 C 576.773438 300 532 255.226562 532 200 C 532 144.773438 576.773438 100 632 100 C 687.226562 100 732 144.773438 732 200 Z M 732 200 "/>
<path style=" stroke:none;fill-rule:nonzero;fill:rgb(21.176471%,50.039216%,94.27451%);fill-opacity:1;" d="M 720 200 C 720 255.226562 675.226562 300 620 300 C 564.773438 300 520 255.226562 520 200 C 520 144.773438 564.773438 100 620 100 C 675.226562 100 720 144.773438 720 200 Z M 720 200 "/>
<path style=" stroke:none;fill-rule:nonzero;fill:rgb(20.862745%,49.898039%,94.180392%);fill-opacity:1;" d="M 708 200 C 708 255.226562 663.226562 300 608 300 C 552.773438 300 508 255.226562 508 200 C 508 144.773438 552.773438 100 608 100 C 663.226562 100 708 144.773438 708 200 Z M 708 200 "/>
<path style=" stroke:none;fill-rule:nonzero;fill:rgb(20.54902%,49.756863%,94.086275%);fill-opacity:1;" d="M 696 200 C 696 255.226562 651.226562 300 596 300 C 540.773438 300 496 255.226562 496 200 C 496 144.773438 540.773438 100 596 100 C 651.226562 100 696 144.773438 696 200 Z M 696 200 "/>
<path style=" stroke:none;fill-rule:nonzero;fill:rgb(20.235294%,49.615686%,93.992157%);fill-opacity:1;" d="M 684 200 C 684 255.226562 639.226562 300 584 300 C 528.773438 300 484 255.226562 484 200 C 484 144.773438 528.773438 100 584 100 C 639.226562 100 684 144.773438 684 200 Z M 684 200 "/>
<path style=" stroke:none;fill-rule:nonzero;fill:rgb(19.921569%,49.47451%,93.898039%);fill-opacity:1;" d="M 672 200 C 672 255.226562 627.226562 300 572 300 C 516.773438 300 472 255.226562 472 200 C 472 144.773438 516.773438 100 572 100 C 627.226562 100 672 144.773438 672 200 Z M 672 200 "/>
<path style=" stroke:none;fill-rule:nonzero;fill:rgb(19.607843%,49.333333%,93.803922%);fill-opacity:1;" d="M 660 200 C 660 255.226562 615.226562 300 560 300 C 504.773438 300 460 255.226562 460 200 C 460 144.773438 504.773438 100 560 100 C 615.226562 100 660 144.773438 660 200 Z M 660 200 "/>
<path style=" stroke:none;fill-rule:nonzero;fill:rgb(19.294118%,49.192157%,93.709804%);fill-opacity:1;" d="M 648 200 C 648 255.226562 603.226562 300 548 300 C 492.773438 300 448 255.226562 448 200 C 448 144.773438 492.773438 100 548 100 C 603.226562 100 648 144.773438 648 200 Z M 648 200 "/>
<path style=" stroke:none;fill-rule:nonzero;fill:rgb(18.980392%,49.05098%,93.615686%);fill-opacity:1;" d="M 636 200 C 636 255.226562 591.226562 300 536 300 C 480.773438 300 436 255.226562 436 200 C 436 144.773438 480.773438 100 536 100 C 591.226562 100 636 144.773438 636 200 Z M 636 200 "/>
<path style=" stroke:none;fill-rule:nonzero;fill:rgb(18.666667%,48.909804%,93.521569%);fill-opacity:1;" d="M 624 200 C 624 255.226562 579.226562 300 524 300 C 468.773438 300 424 255.226562 424 200 C 424 144.773438 468.773438 100 524 100 C 579.226562 100 624 144.773438 624 200 Z M 624 200 "/>
<path style=" stroke:none;fill-rule:nonzero;fill:rgb(18.352941%,48.768627%,93.427451%);fill-opacity:1;" d="M 612 200 C 612 255.226562 567.226562 300 512 300 C 456.773438 300 412 255.226562 412 200 C 412 144.773438 456.773438 100 512 100 C 567.226562 100 612 144.773438 612 200 Z M 612 200 "/>
<path style=" stroke:none;fill-rule:nonzero;fill:rgb(18.039216%,48.627451%,93.333333%);fill-opacity:1;" d="M 600 200 C 600 255.226562 555.226562 300 500 300 C 444.773438 300 400 255.226562 400 200 C 400 144.773438 444.773438 100 500 100 C 555.226562 100 600 144.773438 600 200 Z M 600 200 "/>
<path style=" stroke:none;fill-rule:nonzero;fill:rgb(17.72549%,48.486275%,93.239216%);fill-opacity:1;" d="M 588 200 C 588 255.226562 543.226562 300 488 300 C 432.773438 300 388 255.226562 388 200 C 388 144.773438 432.773438 100 488 100 C 543.226562 100 588 144.773438 588 200 Z M 588 200 "/>
<path style=" stroke:none;fill-rule:nonzero;fill:rgb(17.411765%,48.345098%,93.145098%);fill-opacity:1;" d="M 576 200 C 576 255.226562 531.226562 300 476 300 C 420.773438 300 376 255.226562 376 200 C 376 144.773438 420.773438 100 476 100 C 531.226562 100 576 144.773438 576 200 Z M 576 200 "/>
<path style=" stroke:none;fill-rule:nonzero;fill:rgb(17.098039%,48.203922%,93.05098%);fill-opacity:1;" d="M 564 200 C 564 255.226562 519.226562 300 464 300 C 408.773438 300 364 255.226562 364 200 C 364 144.773438 408.773438 100 464 100 C 519.226562 100 564 144.773438 564 200 Z M 564 200 "/>
<path style=" stroke:none;fill-rule:nonzero;fill:rgb(16.784314%,48.062745%,92.956863%);fill-opacity:1;" d="M 552 200 C 552 255.226562 507.226562 300 452 300 C 396.773438 300 352 255.226562 352 200 C 352 144.773438 396.773438 100 452 100 C 507.226562 100 552 144.773438 552 200 Z M 552 200 "/>
<path style=" stroke:none;fill-rule:nonzero;fill:rgb(16.470588%,47.921569%,92.862745%);fill-opacity:1;" d="M 540 200 C 540 255.226562 495.226562 300 440 300 C 384.773438 300 340 255.226562 340 200 C 340 144.773438 384.773438 100 440 100 C 495.226562 100 540 144.773438 540 200 Z M 540 200 "/>
<path style=" stroke:none;fill-rule:nonzero;fill:rgb(16.156863%,47.780392%,92.768627%);fill-opacity:1;" d="M 528 200 C 528 255.226562 483.226562 300 428 300 C 372.773438 300 328 255.226562 328 200 C 328 144.773438 372.773438 100 428 100 C 483.226562 100 528 144.773438 528 200 Z M 528 200 "/>
<path style=" stroke:none;fill-rule:nonzero;fill:rgb(15.843137%,47.639216%,92.67451%);fill-opacity:1;" d="M 516 200 C 516 255.226562 471.226562 300 416 300 C 360.773438 300 316 255.226562 316 200 C 316 144.773438 360.773438 100 416 100 C 471.226562 100 516 144.773438 516 200 Z M 516 200 "/>
<path style=" stroke:none;fill-rule:nonzero;fill:rgb(15.529412%,47.498039%,92.580392%);fill-opacity:1;" d="M 504 200 C 504 255.226562 459.226562 300 404 300 C 348.773438 300 304 255.226562 304 200 C 304 144.773438 348.773438 100 404 100 C 459.226562 100 504 144.773438 504 200 Z M 504 200 "/>
<path style=" stroke:none;fill-rule:nonzero;fill:rgb(9.019608%,30.588235%,65.098039%);fill-opacity:1;" d="M 500 200 C 500 255.226562 455.226562 300 400 300 C 344.773438 300 300 255.226562 300 200 C 300 144.773438 344.773438 100 400 100 C 455.226562 100 500 144.773438 500 200 Z M 500 200 "/>
</g>
</defs>
<g id="surface565">
<use xlink:href="#surface568" transform="matrix(2,0,0,2,0,0)"/>
</g>
</svg>
